<?xml version="1.0" encoding="UTF-8" standalone="no"?>
<!-- Created with Inkscape (http://www.inkscape.org/) -->

<svg
   width="50mm"
   height="17.174mm"
   viewBox="0 0 50 17.174"
   version="1.1"
   id="svg5"
   inkscape:version="1.1 (ce6663b3b7, 2021-05-25)"
   sodipodi:docname="rmlogo.svg"
   xmlns:inkscape="http://www.inkscape.org/namespaces/inkscape"
   xmlns:sodipodi="http://sodipodi.sourceforge.net/DTD/sodipodi-0.dtd"
   xmlns="http://www.w3.org/2000/svg"
   xmlns:svg="http://www.w3.org/2000/svg">
  <sodipodi:namedview
     id="namedview7"
     pagecolor="#ffffff"
     bordercolor="#666666"
     borderopacity="1.0"
     inkscape:pageshadow="2"
     inkscape:pageopacity="0.0"
     inkscape:pagecheckerboard="0"
     inkscape:document-units="mm"
     showgrid="false"
     width="50mm"
     inkscape:zoom="1.8973437"
     inkscape:cx="74.577949"
     inkscape:cy="81.69316"
     inkscape:window-width="1920"
     inkscape:window-height="1201"
     inkscape:window-x="0"
     inkscape:window-y="0"
     inkscape:window-maximized="1"
     inkscape:current-layer="layer1" />
  <defs
     id="defs2" />
  <g
     inkscape:label="Layer 1"
     inkscape:groupmode="layer"
     id="layer1">
    <g
       id="g3878"
       transform="matrix(1.0335659,0,0,1.0335659,-53.321952,-90.58669)">
      <path
         id="path3840"
         style="font-weight:600;font-size:10.5833px;line-height:1.25;font-family:Montserrat;-inkscape-font-specification:'Montserrat Semi-Bold';stroke-width:0.264583;fill:#ffffff"
         d="m 96.971414,104.2606 q -0.857247,0 -1.661578,-0.24341 -0.793747,-0.24342 -1.259413,-0.64559 l 0.476249,-1.06891 q 0.455082,0.35983 1.111246,0.59267 0.666748,0.22225 1.333496,0.22225 0.825497,0 1.227663,-0.26459 0.412749,-0.26458 0.412749,-0.6985 0,-0.31749 -0.232833,-0.51858 -0.222249,-0.21166 -0.571498,-0.32808 -0.349249,-0.11642 -0.952497,-0.26458 -0.846664,-0.20108 -1.375829,-0.40217 -0.518582,-0.20108 -0.899581,-0.62441 -0.370415,-0.433917 -0.370415,-1.164165 0,-0.613831 0.328082,-1.111246 0.338666,-0.507998 1.005414,-0.804331 0.677331,-0.296332 1.650994,-0.296332 0.677332,0 1.333496,0.169333 0.656165,0.169332 1.132413,0.486831 l -0.433915,1.068914 q -0.486832,-0.28575 -1.015997,-0.433916 -0.529165,-0.148166 -1.02658,-0.148166 -0.814914,0 -1.217079,0.275166 -0.391582,0.275166 -0.391582,0.730248 0,0.317499 0.222249,0.518581 0.232832,0.201083 0.582081,0.317499 0.349249,0.116417 0.952497,0.264583 0.825498,0.190501 1.354663,0.402161 0.529165,0.20109 0.89958,0.62442 0.380999,0.42333 0.380999,1.143 0,0.61383 -0.338666,1.11124 -0.328082,0.49742 -1.005413,0.79375 -0.677331,0.29633 -1.650995,0.29633 z m -4.286231,-7.514141 v 7.408311 H 91.55277 l -4.085154,-5.016486 v 5.016486 H 86.10237 v -7.408311 h 1.132413 l 4.085154,5.016481 v -5.016481 z m -9.958869,0 h 1.375829 v 7.408311 h -1.375829 z m -6.339386,0 h 1.375829 v 6.244151 h 3.873487 v 1.16416 h -5.249316 z m -6.339386,0 h 1.375829 v 6.244151 h 3.873487 v 1.16416 h -5.249316 z m -5.164645,7.514141 q -1.534578,0 -2.391826,-0.85725 -0.857247,-0.86783 -0.857247,-2.47649 v -4.180401 h 1.375829 v 4.127491 q 0,2.18016 1.883827,2.18016 1.873244,0 1.873244,-2.18016 v -4.127491 h 1.354663 v 4.180401 q 0,1.60866 -0.857248,2.47649 -0.846664,0.85725 -2.381242,0.85725 z m -6.487561,-0.10583 -0.01058,-4.910653 -2.434159,4.063983 h -0.613831 l -2.434159,-4.000483 v 4.847153 h -1.312329 v -7.408311 h 1.132413 l 2.942157,4.910651 2.889241,-4.910651 h 1.132413 l 0.01058,7.408311 z M 77.762755,92.544881 v 6.318236 h -1.375829 v -6.297069 l -2.910407,-4.815402 h 1.471078 l 2.169578,3.608904 2.190742,-3.608904 h 1.354662 z m -8.329039,2.719908 q -1.132414,0 -2.042576,-0.486832 -0.910165,-0.497415 -1.428746,-1.365246 -0.518582,-0.878413 -0.518582,-1.95791 0,-1.079497 0.518582,-1.947327 0.518581,-0.878414 1.428746,-1.365246 0.910162,-0.497415 2.042576,-0.497415 1.132412,0 2.042577,0.497415 0.910163,0.486832 1.428746,1.354663 0.51858,0.86783 0.51858,1.95791 0,1.09008 -0.51858,1.95791 -0.518583,0.867831 -1.428746,1.365246 -0.910165,0.486832 -2.042577,0.486832 z m 0,-1.206496 q 0.74083,0 1.333496,-0.328083 0.592665,-0.338665 0.931331,-0.93133 0.338664,-0.603248 0.338664,-1.344079 0,-0.740831 -0.338664,-1.333496 -0.338666,-0.603248 -0.931331,-0.93133 -0.592666,-0.338666 -1.333496,-0.338666 -0.740831,0 -1.333495,0.338666 -0.592666,0.328082 -0.931331,0.93133 -0.338666,0.592665 -0.338666,1.333496 0,0.740831 0.338666,1.344079 0.338665,0.592665 0.931331,0.93133 0.592664,0.328083 1.333495,0.328083 z m -6.34997,1.100663 -1.513412,-2.169577 q -0.09525,0.01059 -0.285748,0.01059 h -1.672162 v 2.158993 h -1.375828 v -7.40831 h 3.04799 q 0.96308,0 1.672162,0.317498 0.719664,0.3175 1.100662,0.910165 0.380999,0.592665 0.380999,1.407578 0,0.836081 -0.412748,1.43933 -0.402166,0.603247 -1.164164,0.89958 l 1.703912,2.434159 z m -0.03174,-4.773068 q 0,-0.709081 -0.465666,-1.09008 -0.465669,-0.380999 -1.36525,-0.380999 h -1.608662 v 2.952741 h 1.608662 q 0.899581,0 1.365245,-0.380999 0.465666,-0.391582 0.465666,-1.100663 z" />
    </g>
  </g>
</svg>
